<svg id="Layer_1" data-name="Layer 1" xmlns="http://www.w3.org/2000/svg" xmlns:xlink="http://www.w3.org/1999/xlink" viewBox="0 0 236.3 82.3"><defs><style>.cls-1{fill:none;}.cls-2{fill:#fff;}.cls-3{fill:#e6b350;}.cls-4{clip-path:url(#clip-path);}.cls-5{fill:#1a5eab;}.cls-6{fill:#008ca7;}.cls-7{clip-path:url(#clip-path-22);}.cls-8{fill:url(#radial-gradient);}.cls-9{clip-path:url(#clip-path-23);}.cls-10{fill:url(#linear-gradient);}</style><clipPath id="clip-path"><rect class="cls-1" x="9.7" y="9.6" width="211.7" height="60.5"/></clipPath><clipPath id="clip-path-22"><path class="cls-1" d="M14.8,65.1h16a26.84,26.84,0,0,1-16-16.9Zm0-49.9V33.3A26.19,26.19,0,0,1,35.5,15.2Zm29.7,0A24.46,24.46,0,0,1,57,21.5v4.8l-.3-.3a22.94,22.94,0,0,0-16.8-7.9c-12.3,0-22.8,10.5-22.8,23a22,22,0,0,0,6.7,15.5,24.12,24.12,0,0,0,16.1,6.9c6,0,13.2-3.3,16.8-7.6l.3-.3V56l-.1,4.5a28.12,28.12,0,0,1-7.8,4.6H80.3V15.2Z"/></clipPath><radialGradient id="radial-gradient" cx="-197.03" cy="-334.82" r="1" gradientTransform="translate(7362.9 12492.89) scale(37.21)" gradientUnits="userSpaceOnUse"><stop offset="0" stop-color="#fffffe"/><stop offset="1" stop-color="#1a5eab"/></radialGradient><clipPath id="clip-path-23"><rect class="cls-1" x="71.6" y="15.1" width="9.6" height="50"/></clipPath><linearGradient id="linear-gradient" x1="-195.65" y1="-346.82" x2="-194.65" y2="-346.82" gradientTransform="translate(-20900.61 11840.4) rotate(90) scale(60.48)" gradientUnits="userSpaceOnUse"><stop offset="0" stop-color="#fffffe"/><stop offset="1" stop-color="#008ca7"/></linearGradient></defs><title>Artboard 1</title><rect class="cls-2" x="10" y="10.2" width="75.4" height="59.2"/><path class="cls-3" d="M9.4,70V9.6H86V70Zm76-.6v0Zm-74.8-.6H84.8v-58H10.6Z"/><g class="cls-4"><path class="cls-5" d="M105.2,24.4A6.92,6.92,0,0,0,100,22a7.19,7.19,0,0,0-7.1,7.1A6.84,6.84,0,0,0,95,33.9a7.78,7.78,0,0,0,5,2.1,7.28,7.28,0,0,0,5.2-2.4V35a8.32,8.32,0,0,1-5.2,1.9A8.16,8.16,0,0,1,91.9,29a8.11,8.11,0,0,1,8.1-8,7.27,7.27,0,0,1,5.1,2v1.4Z"/></g><g class="cls-4"><polygon class="cls-5" points="120.5 27.8 120.5 21.2 121.5 21.2 121.5 36.7 120.5 36.7 120.5 28.7 111.1 28.7 111.1 36.7 110.1 36.7 110.1 21.2 111.1 21.2 111.1 27.8 120.5 27.8"/></g><g class="cls-4"><rect class="cls-5" x="126.9" y="21.2" width="1" height="15.5"/></g><g class="cls-4"><polygon class="cls-5" points="134.3 35.8 138.3 35.8 138.3 36.7 133.3 36.7 133.3 21.2 134.3 21.2 134.3 35.8"/></g><g class="cls-4"><path class="cls-5" d="M142.1,21.2h2.8a7.67,7.67,0,0,1,5.8,2,7.94,7.94,0,0,1,2.5,5.8,7.7,7.7,0,0,1-8.2,7.8h-2.8V21.2Zm2.8,14.6a6.76,6.76,0,0,0,5.2-1.9,7.07,7.07,0,0,0,2.1-4.9,7.26,7.26,0,0,0-2.2-5.2,7.09,7.09,0,0,0-5-1.7h-1.8V35.8Z"/></g><g class="cls-4"><path class="cls-5" d="M165.3,36.7h-1.1l-5.1-7.4h-.5v7.4h-1V21.2h1.9a5.23,5.23,0,0,1,3.5.8,3.94,3.94,0,0,1,1.6,3.3c0,2.7-1.9,4.1-4.5,4.1Zm-5.4-8.3a3.7,3.7,0,0,0,2.7-.7,3.19,3.19,0,0,0,1.1-2.4,2.84,2.84,0,0,0-1.7-2.8,6.58,6.58,0,0,0-2.8-.4h-.6v6.3Z"/></g><g class="cls-4"><polygon class="cls-5" points="170.7 22.1 170.7 27.8 177 27.8 177 28.7 170.7 28.7 170.7 35.8 177.1 35.8 177.1 36.7 169.7 36.7 169.7 21.2 177.1 21.2 177.1 22.1 170.7 22.1"/></g><g class="cls-4"><polygon class="cls-5" points="196.3 37.2 183.2 23.4 183.2 36.7 182.2 36.7 182.2 21 195.3 34.7 195.3 21.2 196.3 21.2 196.3 37.2"/></g><g class="cls-4"><polygon class="cls-5" points="203.8 21.3 202.1 25.9 201.5 25.7 202.9 21 203.8 21.3"/></g><g class="cls-4"><path class="cls-5" d="M216.2,23.7a3.58,3.58,0,0,0-3.2-1.8,2.86,2.86,0,0,0-2.9,3c0,1.6,1.5,2.3,2.8,2.9l3,1.5a3.34,3.34,0,0,1,1.8,3.1,4.89,4.89,0,0,1-9.5,1.2l.9-.4a4.06,4.06,0,0,0,3.7,2.8,3.78,3.78,0,0,0,3.8-3.7c0-1.7-1.8-2.5-3.1-3.2l-2.8-1.5a3.08,3.08,0,0,1-1.6-2.8,3.75,3.75,0,0,1,4-3.9,4.29,4.29,0,0,1,3.8,2.2Z"/></g><g class="cls-4"><path class="cls-6" d="M92.4,47h2.2a6.33,6.33,0,0,1,4.6,1.4,5.73,5.73,0,0,1,2,4.5,5.62,5.62,0,0,1-1.9,4.4c-1.4,1.3-2.8,1.5-4.7,1.5H92.4Zm2.3,10.6a5.13,5.13,0,0,0,3.8-1.2,4.69,4.69,0,0,0,1.5-3.5,4.75,4.75,0,0,0-1.5-3.6,5,5,0,0,0-3.7-1.1h-1v9.4Z"/></g><g class="cls-4"><polygon class="cls-6" points="106.2 47 112.4 47 112.4 48.2 107.6 48.2 107.6 51.7 112.3 51.7 112.3 53 107.6 53 107.6 57.6 112.4 57.6 112.4 58.9 106.2 58.9 106.2 47"/></g><g class="cls-4"><polygon class="cls-6" points="117.9 46.5 127.2 56.2 127.2 47 128.5 47 128.5 59.4 119.2 49.7 119.2 58.9 117.9 58.9 117.9 46.5"/></g><g class="cls-4"><polygon class="cls-6" points="137.3 58.9 135.9 58.9 135.9 48.2 133.1 48.2 133.1 47 140.1 47 140.1 48.2 137.3 48.2 137.3 58.9"/></g><g class="cls-4"><path class="cls-6" d="M145.2,55.5l-1.4,3.4h-1.4l5.5-12.4,5.3,12.4h-1.5l-1.4-3.4Zm2.5-6-2,4.8h4Z"/></g><g class="cls-4"><polygon class="cls-6" points="158.9 57.6 162.2 57.6 162.2 58.9 157.6 58.9 157.6 47 158.9 47 158.9 57.6"/></g><g class="cls-4"><path class="cls-6" d="M183.7,49.6a5,5,0,0,0-3.6-1.6,4.9,4.9,0,0,0,0,9.8,5,5,0,0,0,3.6-1.6v1.6a6.41,6.41,0,0,1-3.5,1.2,6.15,6.15,0,0,1-6.2-6.1,6.23,6.23,0,0,1,6.2-6.2,5.5,5.5,0,0,1,3.5,1.2Z"/></g><g class="cls-4"><path class="cls-6" d="M190.8,55.5l-1.4,3.4H188l5.5-12.4,5.3,12.4h-1.5l-1.4-3.4Zm2.6-6-2,4.8h4Z"/></g><g class="cls-4"><path class="cls-6" d="M204.6,58.9h-1.3V47H205c2.3,0,4.3.6,4.3,3.3a3.14,3.14,0,0,1-3,3.3l3.8,5.3h-1.6l-3.6-5.2h-.3v5.2Zm0-6.4h.4c1.5,0,3-.3,3-2.1,0-2-1.4-2.1-3-2.1h-.4Z"/></g><g class="cls-4"><polygon class="cls-6" points="214.9 47 221.1 47 221.1 48.2 216.2 48.2 216.2 51.7 220.9 51.7 220.9 53 216.2 53 216.2 57.6 221.1 57.6 221.1 58.9 214.9 58.9 214.9 47"/></g><g class="cls-4"><rect class="cls-3" x="90.7" y="41" width="130.6" height="1.2"/></g><g class="cls-7"><rect class="cls-8" x="14.8" y="15.2" width="65.5" height="49.9"/></g><g class="cls-9"><rect class="cls-10" x="71.6" y="15.1" width="9.6" height="50"/></g></svg>